<svg width="24" height="24" viewBox="0 0 24 24" fill="none" xmlns="http://www.w3.org/2000/svg">
<path d="M13 21C13 21.2652 12.8946 21.5196 12.7071 21.7071C12.5196 21.8946 12.2652 22 12 22H8C6.67441 21.9984 5.40356 21.4711 4.46622 20.5338C3.52888 19.5964 3.00159 18.3256 3 17V7C3.00159 5.67441 3.52888 4.40356 4.46622 3.46622C5.40356 2.52888 6.67441 2.00159 8 2H12C12.2652 2 12.5196 2.10536 12.7071 2.29289C12.8946 2.48043 13 2.73478 13 3C13 3.26522 12.8946 3.51957 12.7071 3.70711C12.5196 3.89464 12.2652 4 12 4H8C7.20435 4 6.44129 4.31607 5.87868 4.87868C5.31607 5.44129 5 6.20435 5 7V17C5 17.7956 5.31607 18.5587 5.87868 19.1213C6.44129 19.6839 7.20435 20 8 20H12C12.2652 20 12.5196 20.1054 12.7071 20.2929C12.8946 20.4804 13 20.7348 13 21ZM20.707 11.293L16.707 7.293C16.6148 7.19749 16.5044 7.12131 16.3824 7.0689C16.2604 7.01649 16.1292 6.9889 15.9964 6.98775C15.8636 6.9866 15.7319 7.0119 15.609 7.06218C15.4861 7.11246 15.3745 7.18671 15.2806 7.2806C15.1867 7.3745 15.1125 7.48615 15.0622 7.60905C15.0119 7.73194 14.9866 7.86362 14.9877 7.9964C14.9889 8.12918 15.0165 8.2604 15.0689 8.3824C15.1213 8.50441 15.1975 8.61475 15.293 8.707L17.586 11H10C9.73478 11 9.48043 11.1054 9.29289 11.2929C9.10536 11.4804 9 11.7348 9 12C9 12.2652 9.10536 12.5196 9.29289 12.7071C9.48043 12.8946 9.73478 13 10 13H17.586L15.293 15.293C15.1975 15.3852 15.1213 15.4956 15.0689 15.6176C15.0165 15.7396 14.9889 15.8708 14.9877 16.0036C14.9866 16.1364 15.0119 16.2681 15.0622 16.391C15.1125 16.5138 15.1867 16.6255 15.2806 16.7194C15.3745 16.8133 15.4861 16.8875 15.609 16.9378C15.7319 16.9881 15.8636 17.0134 15.9964 17.0123C16.1292 17.0111 16.2604 16.9835 16.3824 16.9311C16.5044 16.8787 16.6148 16.8025 16.707 16.707L20.707 12.707C20.8945 12.5195 20.9998 12.2652 20.9998 12C20.9998 11.7348 20.8945 11.4805 20.707 11.293Z" fill="#62BE24"/>
</svg>
