<svg width="24" height="24" viewBox="0 0 24 24" fill="none" xmlns="http://www.w3.org/2000/svg">
<path d="M18.975 18.0627C17.6808 19.5514 15.9445 20.5874 14.0198 21.0194C12.095 21.4514 10.0825 21.2568 8.27625 20.4639C6.46996 19.6709 4.96452 18.3211 3.97975 16.6118C2.99499 14.9025 2.58249 12.9231 2.8025 10.9627C3.02233 9.00207 3.86326 7.16313 5.20245 5.71442C6.54165 4.2657 8.30895 3.28311 10.2463 2.91016M13.75 2.91766C15.051 3.1682 16.2829 3.69529 17.3625 4.46325C18.4421 5.2312 19.3441 6.22211 20.0075 7.36891C20.671 8.51572 21.0803 9.79168 21.2079 11.1104C21.3355 12.4292 21.1782 13.7599 20.7469 15.0127" stroke="#62BE24" stroke-width="1.5" stroke-linecap="round"/>
<path d="M10 11.5V9.7125C10 8.62862 10.8954 7.75 12 7.75C13.1046 7.75 14 8.62862 14 9.7125V11.5M9.5 11.5H14.5C15.054 11.5 15.5 11.946 15.5 12.5V15.25C15.5 15.804 15.054 16.25 14.5 16.25H9.5C8.946 16.25 8.5 15.804 8.5 15.25V12.5C8.5 11.946 8.946 11.5 9.5 11.5Z" stroke="#62BE24" stroke-width="1.5"/>
</svg>
